<svg width="198" height="28" viewBox="0 0 198 28" fill="none" xmlns="http://www.w3.org/2000/svg">
<path fill-rule="evenodd" clip-rule="evenodd" d="M7.70851 21.3632C8.2572 21.0815 8.97726 20.7119 10.0783 20.4382C10.1212 20.4276 10.1679 20.4188 10.2181 20.4117C10.5671 22.7697 11.3311 26.1955 12.5179 28L12.9315 27.804C11.7695 26.1001 10.972 22.7211 10.5913 20.3874C11.6981 20.3785 13.5484 20.7864 13.5484 20.7864L13.5601 20.3603L14.4904 20.7637L14.4692 20.3869L15.5661 20.444L15.5738 20.1682L16.4481 20.3192L16.5534 19.921L17.4632 19.9227L17.2801 19.7416L18.5802 19.253L18.1166 18.989L19.2864 18.6719L18.9182 18.3601L19.8777 17.7111L19.5669 17.6017L20.2726 17.0455L19.7089 17.0042L20.26 16.3683L19.9133 16.4084L20.4638 15.7977L20.1531 15.6878L20.4825 15.1211L20.2329 15.0637L20.6905 14.4L20.2183 14.4615L20.3616 13.8138L20.0766 13.9058L20.378 13.2123L19.8721 13.3481L20.0551 12.4007L19.7353 12.617L19.5736 11.6594L19.0964 11.8963L19.4898 11.2807L19.0523 11.2177L19.0715 10.5164L18.5685 10.5519L18.4031 9.71962L17.9941 9.75755L18.078 8.98284L17.3522 9.13719L17.4376 8.31228L16.9033 8.34681L17.0099 7.89845L16.4433 7.9571L16.217 7.04778L15.8333 7.31263L15.8235 6.53496L15.3447 6.82184L15.0541 5.98586L14.7971 6.20401L14.4777 5.26706L14.1272 5.45737L13.7759 4.54432L13.4505 4.96132L13.1575 4.20032L12.7113 4.46319L12.4503 3.67829L11.9737 3.89008L11.781 2.90644L11.4313 3.07164L11.2004 2.33782L10.8821 2.50401L10.7119 1.84715L10.3295 2.06179L10.2555 1.33236L10.1558 1.53012L9.98754 0.797946L10.1351 0L9.58887 0.460417L9.43461 1.50885L9.12312 1.42466L9.10045 2.25144L8.72477 2.21559L8.64493 2.84001L8.36463 2.75658L8.31428 3.45729L7.94136 3.32092L7.64041 3.98918L7.19873 4.07655L6.93185 4.64561L6.40585 4.37933L6.44588 5.20819L6.00345 5.32034L5.89337 5.8941L5.33246 5.75247L5.21845 6.47609L4.68894 6.33523L4.48901 7.05107L4.23416 7.11563L4.0667 7.94899L3.74862 7.67986L3.61821 8.47058L3.12713 8.57176L3.03217 9.39272L2.63328 9.4391L2.48765 10.1283L2.09047 10.1022L2.07546 10.6508L1.82081 10.7011L1.6656 11.087L1.07435 10.8818L1.08372 11.8503L0.705054 11.8247L0.775315 12.5495L0.375468 12.6242L0.723152 13.1259L0.326073 13.0997L0.523122 13.8281L0.232392 13.8772L0.47181 14.3756L0 14.4341L0.681315 15.3066L0.513541 15.4896L0.741675 15.7419L0.270716 15.7714L0.867931 16.41L0.595725 16.4455L1.12236 17.0246L0.66705 17.1412L1.35826 17.6527L1.06445 17.8176L1.52029 18.3365L1.18698 18.6158L1.8255 19.0679L1.43566 19.4322L2.40525 19.6919L2.29007 19.9343L3.2783 20.1653L3.14544 20.3929L4.04201 20.6646L4.16156 20.9281L4.97424 20.9663L4.98424 21.2555L5.49097 21.2416L5.52046 21.4879C5.52046 21.4879 6.71894 21.306 6.67742 21.5073C6.63537 21.7083 6.54328 21.7777 6.54328 21.7777C6.8938 21.7814 7.2382 21.6046 7.70851 21.3632Z" fill="url(#paint0_linear)"/>
<path fill-rule="evenodd" clip-rule="evenodd" d="M99.9853 21.0959C99.2948 21.3914 98.5228 21.5392 97.6693 21.5392C96.8779 21.5392 96.1098 21.3603 95.3649 21.0025C94.62 20.6448 94.0148 20.1159 93.5493 19.4159H93.5028V21.2592H91.9199V3.6192H93.5028V12.2292H93.5493C94.0148 11.5136 94.62 10.9731 95.3649 10.6075C96.1098 10.242 96.8779 10.0592 97.6693 10.0592C98.5228 10.0592 99.2948 10.207 99.9853 10.5025C100.676 10.7981 101.266 11.2025 101.754 11.7159C102.243 12.2292 102.623 12.8359 102.895 13.5359C103.166 14.2359 103.302 14.9903 103.302 15.7992C103.302 16.6081 103.166 17.3625 102.895 18.0625C102.623 18.7625 102.243 19.3692 101.754 19.8825C101.266 20.3959 100.676 20.8003 99.9853 21.0959ZM30.5857 21.5392C31.284 21.5392 31.9318 21.407 32.5293 21.1425C33.1267 20.8781 33.5728 20.5047 33.8677 20.0225H33.9375V21.2592H37.429V15.4025C37.429 14.3447 37.332 13.4308 37.1381 12.6608C36.9441 11.8908 36.6376 11.2531 36.2186 10.7475C35.7997 10.242 35.2527 9.86862 34.5776 9.62751C33.9026 9.3864 33.0763 9.26584 32.0986 9.26584C31.1521 9.26584 30.2249 9.42917 29.3171 9.75584C28.4093 10.0825 27.614 10.5725 26.9312 11.2258L28.8632 13.3025C29.2201 12.9758 29.6507 12.6958 30.155 12.4625C30.6594 12.2292 31.1831 12.1125 31.7262 12.1125C32.3159 12.1125 32.8125 12.2486 33.2159 12.5208C33.6194 12.7931 33.8211 13.217 33.8211 13.7925V13.9792C32.9832 13.9792 32.1219 14.0258 31.2374 14.1192C30.3529 14.2125 29.5498 14.3992 28.8283 14.6792C28.1067 14.9592 27.517 15.3558 27.0592 15.8692C26.6014 16.3825 26.3726 17.0592 26.3726 17.8992C26.3726 18.5836 26.5045 19.1592 26.7683 19.6258C27.0321 20.0925 27.3696 20.4658 27.7808 20.7458C28.192 21.0258 28.6459 21.2281 29.1425 21.3525C29.6391 21.477 30.1201 21.5392 30.5857 21.5392ZM31.54 18.9725C31.3538 18.9725 31.1598 18.9531 30.9581 18.9142C30.7564 18.8753 30.5779 18.8092 30.4227 18.7159C30.2676 18.6225 30.1395 18.4981 30.0387 18.3425C29.9378 18.187 29.8874 18.0003 29.8874 17.7825C29.8874 17.4403 29.996 17.1642 30.2132 16.9542C30.4305 16.7442 30.7059 16.5848 31.0396 16.4759C31.3732 16.367 31.7534 16.2931 32.1801 16.2542C32.6069 16.2153 33.0297 16.1959 33.4487 16.1959H33.9375V16.5925C33.9375 17.3236 33.7319 17.9031 33.3207 18.3309C32.9095 18.7586 32.3159 18.9725 31.54 18.9725ZM44.3035 21.4225C43.7138 21.5625 43.1241 21.6325 42.5344 21.6325C41.5878 21.6325 40.6607 21.4808 39.7529 21.1775C38.8451 20.8742 38.0886 20.427 37.4834 19.8358L39.6248 17.5725C39.9662 17.9458 40.3852 18.257 40.8818 18.5058C41.3784 18.7547 41.906 18.8792 42.4646 18.8792C42.775 18.8792 43.0814 18.8053 43.384 18.6575C43.6866 18.5097 43.8379 18.2492 43.8379 17.8758C43.8379 17.5181 43.6517 17.2536 43.2793 17.0825C42.9069 16.9114 42.3249 16.7325 41.5335 16.5458C41.1301 16.4525 40.7266 16.3281 40.3231 16.1725C39.9197 16.017 39.5589 15.807 39.2408 15.5425C38.9227 15.2781 38.6627 14.9514 38.461 14.5625C38.2593 14.1736 38.1584 13.707 38.1584 13.1625C38.1584 12.4625 38.3058 11.8675 38.6007 11.3775C38.8955 10.8875 39.2757 10.487 39.7412 10.1758C40.2068 9.86473 40.7227 9.63529 41.2891 9.48751C41.8555 9.33973 42.4181 9.26584 42.9767 9.26584C43.8457 9.26584 44.6953 9.40195 45.5255 9.67417C46.3557 9.9464 47.0579 10.3547 47.632 10.8992L45.5371 13.0692C45.2268 12.7736 44.8621 12.5247 44.4431 12.3225C44.0241 12.1203 43.5819 12.0192 43.1164 12.0192C42.7594 12.0192 42.4297 12.0892 42.1271 12.2292C41.8245 12.3692 41.6732 12.6103 41.6732 12.9525C41.6732 13.2792 41.84 13.5125 42.1736 13.6525C42.5073 13.7925 43.0465 13.9481 43.7914 14.1192C44.2259 14.2125 44.6643 14.3447 45.1065 14.5158C45.5488 14.687 45.9484 14.9125 46.3053 15.1925C46.6622 15.4725 46.9493 15.8147 47.1665 16.2192C47.3838 16.6236 47.4924 17.1058 47.4924 17.6658C47.4924 18.397 47.345 19.0153 47.0501 19.5208C46.7553 20.0264 46.3712 20.4347 45.8979 20.7458C45.4246 21.057 44.8931 21.2825 44.3035 21.4225ZM51.9692 26.8592V19.9759H52.0158C52.3727 20.4736 52.8693 20.8664 53.5055 21.1542C54.1417 21.442 54.8168 21.5859 55.5306 21.5859C56.3996 21.5859 57.1755 21.4148 57.8583 21.0725C58.5411 20.7303 59.1191 20.2753 59.5924 19.7075C60.0657 19.1398 60.4265 18.4825 60.6748 17.7359C60.923 16.9892 61.0472 16.2114 61.0472 15.4025C61.0472 14.5936 60.9192 13.8198 60.6631 13.0809C60.4071 12.342 60.0424 11.6925 59.5691 11.1325C59.0958 10.5725 58.5178 10.1292 57.835 9.80254C57.1522 9.47587 56.3918 9.31254 55.5539 9.31254C54.7004 9.31254 53.9594 9.48754 53.3309 9.83754C52.7025 10.1875 52.2098 10.5959 51.8529 11.0625H51.783V9.63921H48.1519V26.8592H51.9692ZM53.4589 18.1558C53.8003 18.327 54.1883 18.4125 54.6228 18.4125C55.0728 18.4125 55.4685 18.327 55.8099 18.1558C56.1513 17.9847 56.4345 17.7592 56.6595 17.4792C56.8845 17.1992 57.0552 16.8764 57.1716 16.5108C57.288 16.1453 57.3462 15.7758 57.3462 15.4025C57.3462 15.0292 57.288 14.6636 57.1716 14.3058C57.0552 13.9481 56.8845 13.6331 56.6595 13.3608C56.4345 13.0886 56.1513 12.867 55.8099 12.6958C55.4685 12.5247 55.0728 12.4392 54.6228 12.4392C54.1883 12.4392 53.8003 12.5247 53.4589 12.6958C53.1175 12.867 52.8266 13.0925 52.5861 13.3725C52.3455 13.6525 52.1593 13.9714 52.0274 14.3292C51.8955 14.687 51.8296 15.0525 51.8296 15.4258C51.8296 15.7992 51.8955 16.1647 52.0274 16.5225C52.1593 16.8803 52.3455 17.1992 52.5861 17.4792C52.8266 17.7592 53.1175 17.9847 53.4589 18.1558ZM67.6888 21.6325C68.8682 21.6325 69.904 21.4186 70.7963 20.9908C71.6886 20.5631 72.4063 19.9525 72.9494 19.1592L70.2958 17.4792C70.032 17.837 69.6906 18.1286 69.2717 18.3542C68.8527 18.5797 68.3406 18.6925 67.7354 18.6925C67.394 18.6925 67.0642 18.6381 66.7461 18.5292C66.428 18.4203 66.1409 18.2686 65.8849 18.0742C65.6288 17.8797 65.4194 17.6503 65.2564 17.3858C65.0935 17.1214 64.9965 16.8258 64.9655 16.4992H73.3684C73.3839 16.3592 73.3917 16.2114 73.3917 16.0558V15.5892C73.3917 14.5936 73.2481 13.707 72.961 12.9292C72.674 12.1514 72.2744 11.4903 71.7623 10.9458C71.2502 10.4014 70.6372 9.98529 69.9234 9.69751C69.2096 9.40973 68.4259 9.26584 67.5725 9.26584C66.6879 9.26584 65.8655 9.41362 65.1051 9.70917C64.3447 10.0047 63.6852 10.4208 63.1266 10.9575C62.568 11.4942 62.1257 12.1475 61.7998 12.9175C61.4739 13.6875 61.311 14.547 61.311 15.4958C61.311 16.4758 61.4778 17.347 61.8115 18.1092C62.1451 18.8714 62.6029 19.5131 63.1848 20.0342C63.7667 20.5553 64.4456 20.952 65.2215 21.2242C65.9974 21.4964 66.8198 21.6325 67.6888 21.6325ZM64.9654 14.1192H69.8768C69.8768 13.5125 69.6867 12.9914 69.3065 12.5559C68.9264 12.1203 68.3561 11.9025 67.5957 11.9025C67.2233 11.9025 66.8819 11.9608 66.5715 12.0775C66.2612 12.1942 65.9896 12.3536 65.7568 12.5559C65.5241 12.7581 65.3379 12.9953 65.1982 13.2675C65.0585 13.5397 64.9809 13.8236 64.9654 14.1192ZM78.0548 21.2592V14.9592C78.0548 14.6325 78.0974 14.3175 78.1828 14.0142C78.2681 13.7109 78.3962 13.4425 78.5669 13.2092C78.7375 12.9759 78.9509 12.7931 79.207 12.6609C79.463 12.5287 79.7617 12.4625 80.1031 12.4625C80.4445 12.4625 80.7277 12.5287 80.9527 12.6609C81.1777 12.7931 81.3523 12.972 81.4764 13.1975C81.6006 13.4231 81.6898 13.6837 81.7441 13.9792C81.7984 14.2748 81.8256 14.5859 81.8256 14.9125V21.2592H85.6663V14.0725C85.6663 13.497 85.5926 12.9214 85.4451 12.3459C85.2977 11.7703 85.0572 11.2609 84.7236 10.8175C84.3899 10.3742 83.9515 10.0125 83.4084 9.73254C82.8653 9.45254 82.2058 9.31254 81.4299 9.31254C81.0264 9.31254 80.6462 9.36698 80.2893 9.47587C79.9324 9.58476 79.6027 9.72476 79.3001 9.89587C78.9975 10.067 78.7337 10.2731 78.5087 10.5142C78.2837 10.7553 78.1013 11.0003 77.9617 11.2492H77.9151V9.63921H74.2141V21.2592H78.0548ZM97.5063 20.1859C96.9011 20.1859 96.3425 20.0731 95.8304 19.8475C95.3183 19.622 94.8761 19.3148 94.5036 18.9259C94.1312 18.537 93.8402 18.0742 93.6308 17.5375C93.4213 17.0009 93.3165 16.4214 93.3165 15.7992C93.3165 15.177 93.4213 14.5975 93.6308 14.0609C93.8402 13.5242 94.1312 13.0575 94.5036 12.6609C94.8761 12.2642 95.3183 11.9531 95.8304 11.7275C96.3425 11.502 96.9011 11.3892 97.5063 11.3892C98.1581 11.3892 98.74 11.5059 99.2521 11.7392C99.7642 11.9725 100.195 12.2875 100.544 12.6842C100.893 13.0809 101.161 13.5475 101.347 14.0842C101.533 14.6209 101.626 15.1925 101.626 15.7992C101.626 16.4059 101.533 16.9775 101.347 17.5142C101.161 18.0509 100.893 18.5175 100.544 18.9142C100.195 19.3109 99.7642 19.622 99.2521 19.8475C98.74 20.0731 98.1581 20.1859 97.5063 20.1859ZM106.732 6.94419C106.499 7.15419 106.243 7.25919 105.964 7.25919C105.684 7.25919 105.428 7.15419 105.195 6.94419C104.963 6.73419 104.846 6.46585 104.846 6.13919C104.846 5.81252 104.963 5.54419 105.195 5.33419C105.428 5.12419 105.684 5.01919 105.964 5.01919C106.243 5.01919 106.499 5.12419 106.732 5.33419C106.964 5.54419 107.081 5.81252 107.081 6.13919C107.081 6.46585 106.964 6.73419 106.732 6.94419ZM106.755 21.2592V10.3392H105.172V21.2592H106.755ZM116.772 21.1075C116.058 21.3953 115.274 21.5392 114.421 21.5392C113.583 21.5392 112.807 21.3953 112.093 21.1075C111.379 20.8197 110.766 20.4192 110.254 19.9059C109.742 19.3925 109.343 18.7859 109.056 18.0859C108.768 17.3859 108.625 16.6236 108.625 15.7992C108.625 14.9747 108.768 14.2125 109.056 13.5125C109.343 12.8125 109.742 12.2059 110.254 11.6925C110.766 11.1792 111.379 10.7786 112.093 10.4909C112.807 10.2031 113.583 10.0592 114.421 10.0592C115.274 10.0592 116.058 10.2031 116.772 10.4909C117.486 10.7786 118.099 11.1792 118.611 11.6925C119.123 12.2059 119.522 12.8125 119.809 13.5125C120.096 14.2125 120.24 14.9747 120.24 15.7992C120.24 16.6236 120.096 17.3859 119.809 18.0859C119.522 18.7859 119.123 19.3925 118.611 19.9059C118.099 20.4192 117.486 20.8197 116.772 21.1075ZM114.421 20.1859C113.785 20.1859 113.214 20.0731 112.71 19.8475C112.206 19.622 111.775 19.3109 111.418 18.9142C111.061 18.5175 110.786 18.0509 110.592 17.5142C110.398 16.9775 110.301 16.4059 110.301 15.7992C110.301 15.1925 110.398 14.6209 110.592 14.0842C110.786 13.5475 111.061 13.0809 111.418 12.6842C111.775 12.2875 112.206 11.9725 112.71 11.7392C113.214 11.5059 113.785 11.3892 114.421 11.3892C115.057 11.3892 115.631 11.5059 116.143 11.7392C116.655 11.9725 117.09 12.2875 117.447 12.6842C117.804 13.0809 118.079 13.5475 118.273 14.0842C118.467 14.6209 118.564 15.1925 118.564 15.7992C118.564 16.4059 118.467 16.9775 118.273 17.5142C118.079 18.0509 117.804 18.5175 117.447 18.9142C117.09 19.3109 116.655 19.622 116.143 19.8475C115.631 20.0731 115.057 20.1859 114.421 20.1859ZM126.661 21.3642C126.172 21.4809 125.679 21.5392 125.182 21.5392C124.36 21.5392 123.561 21.3681 122.785 21.0259C122.009 20.6836 121.373 20.147 120.876 19.4159L122.133 18.4825C122.413 18.9647 122.824 19.3692 123.367 19.6959C123.91 20.0225 124.507 20.1859 125.159 20.1859C125.501 20.1859 125.826 20.1547 126.137 20.0925C126.447 20.0303 126.719 19.9214 126.952 19.7659C127.184 19.6103 127.37 19.412 127.51 19.1709C127.65 18.9297 127.72 18.6303 127.72 18.2725C127.72 17.697 127.444 17.2653 126.893 16.9775C126.342 16.6897 125.547 16.4214 124.507 16.1725C124.182 16.0947 123.836 15.9975 123.472 15.8809C123.107 15.7642 122.769 15.5931 122.459 15.3675C122.149 15.142 121.893 14.8581 121.691 14.5159C121.489 14.1736 121.388 13.7459 121.388 13.2325C121.388 12.6725 121.497 12.1942 121.714 11.7975C121.931 11.4009 122.222 11.0742 122.587 10.8175C122.952 10.5609 123.367 10.3703 123.832 10.2459C124.298 10.1214 124.779 10.0592 125.276 10.0592C126.036 10.0592 126.773 10.2303 127.487 10.5725C128.201 10.9147 128.736 11.397 129.093 12.0192L127.883 12.9292C127.65 12.4781 127.297 12.1086 126.823 11.8209C126.35 11.5331 125.811 11.3892 125.206 11.3892C124.926 11.3892 124.647 11.4203 124.368 11.4825C124.088 11.5447 123.84 11.6459 123.623 11.7859C123.406 11.9259 123.231 12.1047 123.099 12.3225C122.967 12.5403 122.901 12.797 122.901 13.0925C122.901 13.6059 123.111 13.9986 123.53 14.2709C123.949 14.5431 124.608 14.7725 125.508 14.9592C126.796 15.2236 127.747 15.6086 128.36 16.1142C128.973 16.6197 129.279 17.3003 129.279 18.1559C129.279 18.7781 129.159 19.3031 128.918 19.7309C128.678 20.1586 128.364 20.5086 127.976 20.7809C127.588 21.0531 127.149 21.2475 126.661 21.3642ZM135.898 21.5392C136.844 21.5392 137.655 21.3681 138.33 21.0259C139.005 20.6836 139.575 20.2248 140.041 19.6492L138.854 18.7625C138.543 19.1825 138.148 19.5247 137.667 19.7892C137.186 20.0536 136.596 20.1859 135.898 20.1859C135.261 20.1859 134.687 20.0731 134.175 19.8475C133.663 19.622 133.228 19.3109 132.872 18.9142C132.515 18.5175 132.239 18.0547 132.045 17.5259C131.851 16.997 131.754 16.4214 131.754 15.7992C131.754 15.177 131.851 14.5975 132.045 14.0609C132.239 13.5242 132.519 13.0575 132.883 12.6609C133.248 12.2642 133.686 11.9531 134.198 11.7275C134.71 11.502 135.285 11.3892 135.921 11.3892C136.511 11.3892 137.058 11.5253 137.562 11.7975C138.066 12.0697 138.45 12.4159 138.714 12.8359L139.948 11.9492C139.482 11.327 138.873 10.8564 138.12 10.5375C137.368 10.2186 136.627 10.0592 135.898 10.0592C135.013 10.0592 134.214 10.2031 133.5 10.4909C132.786 10.7786 132.177 11.1792 131.673 11.6925C131.168 12.2059 130.777 12.8125 130.497 13.5125C130.218 14.2125 130.078 14.9747 130.078 15.7992C130.078 16.6236 130.218 17.3859 130.497 18.0859C130.777 18.7859 131.168 19.3925 131.673 19.9059C132.177 20.4192 132.786 20.8197 133.5 21.1075C134.214 21.3953 135.013 21.5392 135.898 21.5392ZM142.539 6.94419C142.306 7.15419 142.05 7.25919 141.771 7.25919C141.492 7.25919 141.236 7.15419 141.003 6.94419C140.77 6.73419 140.654 6.46585 140.654 6.13919C140.654 5.81252 140.77 5.54419 141.003 5.33419C141.236 5.12419 141.492 5.01919 141.771 5.01919C142.05 5.01919 142.306 5.12419 142.539 5.33419C142.772 5.54419 142.888 5.81252 142.888 6.13919C142.888 6.46585 142.772 6.73419 142.539 6.94419ZM142.562 21.2592V10.3392H140.98V21.2592H142.562ZM152.591 21.0025C151.807 21.3603 150.965 21.5392 150.065 21.5392C149.258 21.5392 148.51 21.3953 147.819 21.1075C147.129 20.8197 146.535 20.4192 146.038 19.9059C145.542 19.3925 145.15 18.7859 144.863 18.0859C144.576 17.3859 144.432 16.6236 144.432 15.7992C144.432 14.9747 144.572 14.2125 144.851 13.5125C145.131 12.8125 145.519 12.2059 146.015 11.6925C146.512 11.1792 147.094 10.7786 147.761 10.4909C148.428 10.2031 149.15 10.0592 149.926 10.0592C150.779 10.0592 151.532 10.2031 152.184 10.4909C152.835 10.7786 153.378 11.1675 153.813 11.6575C154.247 12.1475 154.577 12.7192 154.802 13.3725C155.027 14.0259 155.14 14.7259 155.14 15.4725V15.8225C155.14 15.947 155.132 16.0792 155.116 16.2192H146.085C146.101 16.7636 146.209 17.277 146.411 17.7592C146.613 18.2414 146.892 18.6614 147.249 19.0192C147.606 19.377 148.025 19.6609 148.506 19.8709C148.987 20.0809 149.507 20.1859 150.065 20.1859C150.888 20.1859 151.598 19.9953 152.195 19.6142C152.793 19.2331 153.247 18.7936 153.557 18.2959L154.744 19.2292C154.092 20.0536 153.375 20.6447 152.591 21.0025ZM153.534 14.9592H146.108C146.139 14.4925 146.256 14.0453 146.457 13.6175C146.659 13.1898 146.931 12.8087 147.272 12.4742C147.613 12.1398 148.009 11.8753 148.459 11.6809C148.909 11.4864 149.398 11.3892 149.926 11.3892C151.058 11.3892 151.931 11.7275 152.544 12.4042C153.157 13.0809 153.487 13.9325 153.534 14.9592ZM158.569 15.6592V21.2592H156.986V12.7425C156.986 12.447 156.979 12.0659 156.963 11.5992C156.947 11.1325 156.924 10.7125 156.893 10.3392H158.406C158.437 10.6347 158.46 10.9614 158.476 11.3192C158.492 11.677 158.499 11.9725 158.499 12.2059H158.546C158.856 11.5681 159.361 11.0509 160.059 10.6542C160.757 10.2575 161.494 10.0592 162.27 10.0592C163.651 10.0592 164.687 10.4714 165.378 11.2959C166.068 12.1203 166.413 13.2092 166.413 14.5625V21.2592H164.831V15.2159C164.831 14.6403 164.784 14.1192 164.691 13.6525C164.598 13.1859 164.439 12.7853 164.214 12.4509C163.989 12.1164 163.686 11.8559 163.306 11.6692C162.926 11.4825 162.449 11.3892 161.874 11.3892C161.455 11.3892 161.048 11.4747 160.652 11.6459C160.257 11.817 159.904 12.0775 159.593 12.4275C159.283 12.7775 159.035 13.2209 158.848 13.7575C158.662 14.2942 158.569 14.9281 158.569 15.6592ZM173.986 21.5392C174.933 21.5392 175.743 21.3681 176.419 21.0259C177.094 20.6836 177.664 20.2248 178.129 19.6492L176.942 18.7625C176.632 19.1825 176.236 19.5247 175.755 19.7892C175.274 20.0536 174.684 20.1859 173.986 20.1859C173.35 20.1859 172.776 20.0731 172.264 19.8475C171.752 19.622 171.317 19.3109 170.96 18.9142C170.603 18.5175 170.328 18.0547 170.134 17.5259C169.94 16.997 169.843 16.4214 169.843 15.7992C169.843 15.177 169.94 14.5975 170.134 14.0609C170.328 13.5242 170.607 13.0575 170.972 12.6609C171.336 12.2642 171.775 11.9531 172.287 11.7275C172.799 11.502 173.373 11.3892 174.009 11.3892C174.599 11.3892 175.146 11.5253 175.65 11.7975C176.155 12.0697 176.539 12.4159 176.803 12.8359L178.036 11.9492C177.571 11.327 176.962 10.8564 176.209 10.5375C175.456 10.2186 174.715 10.0592 173.986 10.0592C173.102 10.0592 172.302 10.2031 171.589 10.4909C170.875 10.7786 170.266 11.1792 169.761 11.6925C169.257 12.2059 168.865 12.8125 168.586 13.5125C168.307 14.2125 168.167 14.9747 168.167 15.7992C168.167 16.6236 168.307 17.3859 168.586 18.0859C168.865 18.7859 169.257 19.3925 169.761 19.9059C170.266 20.4192 170.875 20.8197 171.589 21.1075C172.302 21.3953 173.102 21.5392 173.986 21.5392ZM186.412 21.0025C185.628 21.3603 184.786 21.5392 183.886 21.5392C183.08 21.5392 182.331 21.3953 181.64 21.1075C180.95 20.8197 180.356 20.4192 179.86 19.9059C179.363 19.3925 178.971 18.7859 178.684 18.0859C178.397 17.3859 178.253 16.6236 178.253 15.7992C178.253 14.9747 178.393 14.2125 178.672 13.5125C178.952 12.8125 179.34 12.2059 179.836 11.6925C180.333 11.1792 180.915 10.7786 181.582 10.4909C182.249 10.2031 182.971 10.0592 183.747 10.0592C184.6 10.0592 185.353 10.2031 186.005 10.4909C186.656 10.7786 187.2 11.1675 187.634 11.6575C188.069 12.1475 188.398 12.7192 188.623 13.3725C188.848 14.0259 188.961 14.7259 188.961 15.4725V15.8225C188.961 15.947 188.953 16.0792 188.938 16.2192H179.906C179.922 16.7636 180.03 17.277 180.232 17.7592C180.434 18.2414 180.713 18.6614 181.07 19.0192C181.427 19.377 181.846 19.6609 182.327 19.8709C182.808 20.0809 183.328 20.1859 183.886 20.1859C184.709 20.1859 185.419 19.9953 186.016 19.6142C186.614 19.2331 187.068 18.7936 187.378 18.2959L188.565 19.2292C187.913 20.0536 187.196 20.6447 186.412 21.0025ZM187.355 14.9592H179.929C179.96 14.4925 180.077 14.0453 180.279 13.6175C180.48 13.1898 180.752 12.8087 181.093 12.4742C181.435 12.1398 181.83 11.8753 182.28 11.6809C182.73 11.4864 183.219 11.3892 183.747 11.3892C184.88 11.3892 185.753 11.7275 186.365 12.4042C186.978 13.0809 187.308 13.9325 187.355 14.9592ZM195.381 21.3642C194.893 21.4809 194.4 21.5392 193.903 21.5392C193.081 21.5392 192.282 21.3681 191.506 21.0259C190.73 20.6836 190.094 20.147 189.597 19.4159L190.854 18.4825C191.133 18.9647 191.545 19.3692 192.088 19.6959C192.631 20.0225 193.228 20.1859 193.88 20.1859C194.221 20.1859 194.547 20.1547 194.858 20.0925C195.168 20.0303 195.439 19.9214 195.672 19.7659C195.905 19.6103 196.091 19.412 196.231 19.1709C196.371 18.9297 196.44 18.6303 196.44 18.2725C196.44 17.697 196.165 17.2653 195.614 16.9775C195.063 16.6897 194.268 16.4214 193.228 16.1725C192.902 16.0947 192.557 15.9975 192.192 15.8809C191.828 15.7642 191.49 15.5931 191.18 15.3675C190.869 15.142 190.613 14.8581 190.412 14.5159C190.21 14.1736 190.109 13.7459 190.109 13.2325C190.109 12.6725 190.218 12.1942 190.435 11.7975C190.652 11.4009 190.943 11.0742 191.308 10.8175C191.673 10.5609 192.088 10.3703 192.553 10.2459C193.019 10.1214 193.5 10.0592 193.996 10.0592C194.757 10.0592 195.494 10.2303 196.208 10.5725C196.921 10.9147 197.457 11.397 197.814 12.0192L196.603 12.9292C196.371 12.4781 196.018 12.1086 195.544 11.8209C195.071 11.5331 194.532 11.3892 193.927 11.3892C193.647 11.3892 193.368 11.4203 193.089 11.4825C192.809 11.5447 192.561 11.6459 192.344 11.7859C192.126 11.9259 191.952 12.1047 191.82 12.3225C191.688 12.5403 191.622 12.797 191.622 13.0925C191.622 13.6059 191.832 13.9986 192.251 14.2709C192.67 14.5431 193.329 14.7725 194.229 14.9592C195.517 15.2236 196.468 15.6086 197.081 16.1142C197.693 16.6197 198 17.3003 198 18.1559C198 18.7781 197.88 19.3031 197.639 19.7309C197.399 20.1586 197.084 20.5086 196.696 20.7809C196.309 21.0531 195.87 21.2475 195.381 21.3642Z" fill="#7E7E7E"/>
<defs>
<linearGradient id="paint0_linear" x1="16.2893" y1="26.4289" x2="16.9386" y2="9.90806" gradientUnits="userSpaceOnUse">
<stop stop-color="#FF9B04"/>
<stop offset="1" stop-color="#FF9400"/>
</linearGradient>
</defs>
</svg>
